<svg xmlns="http://www.w3.org/2000/svg" version="1.1" xmlns:xlink="http://www.w3.org/1999/xlink" viewBox="0 0 200 200"><rect width="200" height="200" fill="url('#gradient')"></rect><defs><linearGradient id="gradient" gradientTransform="rotate(337 0.5 0.5)"><stop offset="0%" stop-color="#80eacf"></stop><stop offset="100%" stop-color="#68d436"></stop></linearGradient></defs><g><g fill="#445272" transform="matrix(3.184598296927064,0,0,3.184598296927064,14.002969876901616,123.39450684508232)" stroke="#2319b0" stroke-width="1.45"><path d="M8.41-3.78L8.41-3.78Q8.41-4.53 7.88-4.95Q7.34-5.37 6.01-5.82Q4.67-6.27 3.82-6.69L3.82-6.69Q1.05-8.05 1.05-10.42L1.05-10.42Q1.05-11.60 1.74-12.50Q2.43-13.41 3.69-13.91Q4.95-14.41 6.52-14.41L6.52-14.41Q8.06-14.41 9.27-13.87Q10.49-13.32 11.16-12.31Q11.84-11.30 11.84-10L11.84-10L8.42-10Q8.42-10.87 7.89-11.35Q7.35-11.83 6.45-11.83L6.45-11.83Q5.53-11.83 5.00-11.42Q4.46-11.02 4.46-10.39L4.46-10.39Q4.46-9.84 5.05-9.40Q5.63-8.96 7.11-8.48Q8.58-8.01 9.53-7.46L9.53-7.46Q11.84-6.13 11.84-3.80L11.84-3.80Q11.84-1.93 10.43-0.87Q9.02 0.20 6.57 0.20L6.57 0.20Q4.84 0.20 3.44-0.42Q2.04-1.04 1.33-2.12Q0.63-3.20 0.63-4.61L0.63-4.61L4.06-4.61Q4.06-3.47 4.65-2.92Q5.24-2.38 6.57-2.38L6.57-2.38Q7.42-2.38 7.92-2.75Q8.41-3.12 8.41-3.78ZM22.69 0L19.39 0Q19.22-0.32 19.08-0.95L19.08-0.95Q18.17 0.20 16.54 0.20L16.54 0.20Q15.05 0.20 14.00-0.71Q12.96-1.61 12.96-2.98L12.96-2.98Q12.96-4.70 14.23-5.58Q15.50-6.46 17.92-6.46L17.92-6.46L18.94-6.46L18.94-7.01Q18.94-8.47 17.68-8.47L17.68-8.47Q16.50-8.47 16.50-7.31L16.50-7.31L13.21-7.31Q13.21-8.85 14.52-9.80Q15.82-10.76 17.84-10.76Q19.86-10.76 21.04-9.78Q22.21-8.79 22.24-7.07L22.24-7.07L22.24-2.39Q22.26-0.94 22.69-0.17L22.69-0.17L22.69 0ZM17.33-2.15L17.33-2.15Q17.95-2.15 18.35-2.41Q18.76-2.68 18.94-3.01L18.94-3.01L18.94-4.70L17.98-4.70Q16.26-4.70 16.26-3.15L16.26-3.15Q16.26-2.71 16.56-2.43Q16.87-2.15 17.33-2.15ZM24.60-13.19L27.89-13.19L27.89-10.57L29.63-10.57L29.63-8.28L27.89-8.28L27.89-3.45Q27.89-2.85 28.11-2.62Q28.32-2.38 28.96-2.38L28.96-2.38Q29.44-2.38 29.78-2.44L29.78-2.44L29.78-0.09Q28.89 0.20 27.92 0.20L27.92 0.20Q26.22 0.20 25.41-0.61Q24.60-1.41 24.60-3.04L24.60-3.04L24.60-8.28L23.25-8.28L23.25-10.57L24.60-10.57L24.60-13.19ZM34.39-10.57L34.39 0L31.09 0L31.09-10.57L34.39-10.57ZM30.90-13.29L30.90-13.29Q30.90-13.99 31.41-14.44Q31.91-14.89 32.72-14.89Q33.54-14.89 34.04-14.44Q34.55-13.99 34.55-13.29Q34.55-12.59 34.04-12.14Q33.54-11.69 32.72-11.69Q31.91-11.69 31.41-12.14Q30.90-12.59 30.90-13.29ZM42.87-10.64L42.81-7.59L41.73-7.67Q40.18-7.67 39.74-6.69L39.74-6.69L39.74 0L36.45 0L36.45-10.57L39.53-10.57L39.64-9.21Q40.47-10.76 41.95-10.76L41.95-10.76Q42.48-10.76 42.87-10.64L42.87-10.64ZM48.93 0.20L48.93 0.20Q46.49 0.20 44.99-1.25Q43.49-2.71 43.49-5.03L43.49-5.03L43.49-5.30Q43.49-6.92 44.09-8.16Q44.69-9.40 45.84-10.08Q46.99-10.76 48.57-10.76L48.57-10.76Q50.80-10.76 52.09-9.38Q53.38-8.00 53.38-5.53L53.38-5.53L53.38-4.25L46.84-4.25Q47.01-3.36 47.61-2.85Q48.20-2.34 49.15-2.34L49.15-2.34Q50.71-2.34 51.59-3.44L51.59-3.44L53.10-1.66Q52.48-0.81 51.35-0.31Q50.22 0.20 48.93 0.20ZM48.55-8.22L48.55-8.22Q47.11-8.22 46.84-6.31L46.84-6.31L50.16-6.31L50.16-6.56Q50.18-7.35 49.76-7.79Q49.34-8.22 48.55-8.22Z"></path></g></g></svg>